<svg xmlns="http://www.w3.org/2000/svg" xmlns:xlink="http://www.w3.org/1999/xlink" viewBox="0 0 100 29.91" xmlns:v="https://vecta.io/nano"><defs><clipPath id="A" transform="translate(-1 -1.01)"><path d="M9.79 9.61a26.33 26.33 0 0 0-2.38 3.18q-.36.57-.69 1.14l-.65 1.17a26.7 26.7 0 0 0-1.56 3.65 27 27 0 0 0-1.22 5.32l7-4.05a21 21 0 0 1 1.45-3.17h0a21.43 21.43 0 0 1 2-2.83V5.9a26.61 26.61 0 0 0-4 3.72" fill="none"/></clipPath><clipPath id="B" transform="translate(-1 -1.01)"><path d="M14.54 14a22.4 22.4 0 0 1 2 2.83h0A22.08 22.08 0 0 1 18 20l7 4.05a27 27 0 0 0-1.23-5.32 25.68 25.68 0 0 0-1.57-3.66l-.65-1.16-.68-1.14a25.64 25.64 0 0 0-2.39-3.18 26.67 26.67 0 0 0-4-3.73z" fill="none"/></clipPath><clipPath id="C" transform="translate(-1 -1.01)"><path d="M14.34 21.2h0a22.52 22.52 0 0 1-3.47-.33L3.84 25a28 28 0 0 0 5.24 1.59A27.48 27.48 0 0 0 13 27h1.33 1.34a25.23 25.23 0 0 0 3.95-.49 27.18 27.18 0 0 0 5.22-1.61l-7-4.05a21.35 21.35 0 0 1-3.47.34" fill="none"/></clipPath><path id="D" d="M8.85 24.41a1.47 1.47 0 0 1-.91-.49l.34-.37a1.27 1.27 0 0 0 .62.34c.28.05.48-.06.53-.26a.31.31 0 0 0 0-.21c-.15-.21-.64-.37-.9-.71a.75.75 0 0 1-.13-.58.88.88 0 0 1 1.13-.68 1.31 1.31 0 0 1 .84.46l-.34.34a1.16 1.16 0 0 0-.55-.31c-.25 0-.45.05-.48.23a.2.2 0 0 0 .05.18c.11.16.67.39.92.73a.75.75 0 0 1 .13.6.94.94 0 0 1-1.19.73"/><path id="E" d="M11.86 22.43l-.44 1.13.73.05zm.6 2.28l-.18-.62-1-.06-.25.58h-.62l1.23-2.82h.61l.87 3z"/><path id="F" d="M14.44 24.75a1.33 1.33 0 0 1-1-.29l.26-.43a1.19 1.19 0 0 0 .68.21c.28 0 .46-.16.45-.37a.4.4 0 0 0-.09-.2c-.19-.17-.71-.22-1-.52a.77.77 0 0 1-.27-.54.89.89 0 0 1 1-.89 1.28 1.28 0 0 1 .92.28l-.26.4a1.09 1.09 0 0 0-.6-.19c-.27 0-.44.14-.43.32a.23.23 0 0 0 .08.17c.15.13.74.24 1 .52a.75.75 0 0 1 .25.56.94.94 0 0 1-1 1"/><path id="G" d="M17.1 21.99c-.45.06-.69.52-.6 1.12s.49.93.94.86.68-.67.61-1.13-.47-.93-.95-.85m.41 2.49a1.42 1.42 0 0 1-1.63-1.31 1.35 1.35 0 0 1 1.17-1.68 1.52 1.52 0 0 1 .46 3"/></defs><path d="M57 27.36a6.78 6.78 0 0 0-1-.51 4.35 4.35 0 0 1-.76-.35.69.69 0 0 1-.33-.61.63.63 0 0 1 .32-.55 1.35 1.35 0 0 1 .78-.21 2.42 2.42 0 0 1 1.23.36l.26-.45a1.48 1.48 0 0 0-.5-.25 2.93 2.93 0 0 0-1.09-.21 1.94 1.94 0 0 0-1.21.36 1.18 1.18 0 0 0-.49 1 1.21 1.21 0 0 0 .43 1 3.91 3.91 0 0 0 1 .49 7.86 7.86 0 0 1 .84.36.85.85 0 0 1 .43.73.76.76 0 0 1-.32.65 1.51 1.51 0 0 1-.9.24 2.52 2.52 0 0 1-1.38-.42l-.26.48a1.41 1.41 0 0 0 .5.26 3.1 3.1 0 0 0 1.2.24 2.09 2.09 0 0 0 1.34-.41 1.34 1.34 0 0 0 .49-1.1 1.23 1.23 0 0 0-.58-1.1zm10.62-2.3a1.86 1.86 0 0 0-1.38-.49 3.35 3.35 0 0 0-1.25.24 1.77 1.77 0 0 0-.49.26l.26.45a2.68 2.68 0 0 1 1.41-.4 1.3 1.3 0 0 1 1 .29 1.59 1.59 0 0 1 .26 1.07v.19h-.26c-2 0-2.93.55-2.93 1.66a1.47 1.47 0 0 0 .45 1.12 1.64 1.64 0 0 0 1.18.43 3.13 3.13 0 0 0 1.13-.24l.49-.26v.38H68v-3.24a4.14 4.14 0 0 0-.06-.79 1.21 1.21 0 0 0-.32-.67zm-.24 3.85a3.49 3.49 0 0 1-1.41.42 1.17 1.17 0 0 1-.86-.3.89.89 0 0 1-.26-.67c0-.77.75-1.16 2.25-1.16h.29zm9.81-4.33a2.16 2.16 0 0 0-1.42.46v-2.87h-.63v7.38a5 5 0 0 0 1.71.34 2.45 2.45 0 0 0 1.85-.76 2.74 2.74 0 0 0 .72-2 2.78 2.78 0 0 0-.61-1.88 2 2 0 0 0-1.62-.67zm1.06 4.16a1.73 1.73 0 0 1-1.38.59 4.15 4.15 0 0 1-1.1-.18v-3.51a2.31 2.31 0 0 1 1.35-.5 1.44 1.44 0 0 1 1.19.56 2.63 2.63 0 0 1-.06 3zm10.11-4.16a2.07 2.07 0 0 0-1.69.74 2.89 2.89 0 0 0-.63 2 2.77 2.77 0 0 0 .63 1.89 2.17 2.17 0 0 0 1.72.72 3.56 3.56 0 0 0 1.29-.24 1.63 1.63 0 0 0 .52-.28l-.28-.49a3.46 3.46 0 0 1-1.47.42 1.57 1.57 0 0 1-1.29-.53 2.07 2.07 0 0 1-.46-1.39h3.63v-.34a2.7 2.7 0 0 0-.56-1.82 1.79 1.79 0 0 0-1.41-.68zm-1.64 2.25a1.8 1.8 0 0 1 .51-1.25 1.56 1.56 0 0 1 1.14-.46 1.16 1.16 0 0 1 1 .57 2.18 2.18 0 0 1 .29 1.14zm12.75-2.26a2 2 0 0 0-1.61.8v-.66h-.6v5.07h.64v-3.74a3.1 3.1 0 0 1 .18-.26 1.49 1.49 0 0 1 .49-.41 1.8 1.8 0 0 1 .87-.23 2.73 2.73 0 0 1 .41 0l.15-.52a1.89 1.89 0 0 0-.53-.05zM45.46 13.19a6.6 6.6 0 0 1-.25 2.23 2.19 2.19 0 0 1-2.2 1H36V5.91h-3.48v11.83c0 3-1.43 4.4-4.31 4.4v3c4.21 0 7-1.83 7.56-5.14h7.95c3.44 0 5.17-1.86 5.17-5.6V5.91h-3.43zm.03 10.1h3.38v3.47h-3.38zM98.78 5.91h-3.5v7.08q0 3.41-2.62 3.41h-3.39c.47-.5.72-1.77.72-3.78V5.91h-3.5v7.08c0 2.3-.87 3.44-2.64 3.44h-3.22v-.18a7.61 7.61 0 0 0 .56-3.6V5.91h-3.5v6.87c0 2.45-.87 3.66-2.62 3.66H59.24a4.87 4.87 0 0 1-2.67-.52c-.65-.47-1-1.46-1-3V-.01h-3.43v14.34a6.05 6.05 0 0 0 1.24 4 4.7 4.7 0 0 0 3.84 1.66h35.55c3.53 0 6-2.91 6-7.37z" fill="#616263"/><path d="M13.1 9.46h-.02v1h1.01v-.08-.92h-.99z" fill="#a37749"/><g fill="#fff"><path d="M13.54 9.46h.55v1h-.55z"/><path d="M13.54 9.46h.55v1h-.55z"/></g><g clip-path="url(#A)"><path d="M0 22.43L5.42.28l15.34 10.06-10.41 19.54L0 22.43z" fill="#529c44"/></g><g clip-path="url(#B)"><path d="M5.882 9.074L21.627.454l10.085 18.42-15.745 8.62z" fill="#0095b6"/></g><path d="M10.56 10.72h1v.94h0v-1.01h-1.01v1.01h.01v-.94z" fill="#fff"/><path d="M8.9 2.66h1.01v1.01H8.9z" fill="#7dba48"/><path d="M10.43 6.85v-.14l-.79.79h.13l.66-.65z" fill="#a37749"/><path d="M9.77 7.51h.66v-.66z" fill="#fff"/><path d="M8.05 5.5h1.01v1.01H8.05z" fill="#7dba48"/><path d="M13.07 4.46h.07 0 .07 0l.62.48h.22v-1H13v.55z" fill="#616263"/><path d="M4.59 5.05h1.02v1.02H4.59z" fill="#7dba48"/><g fill="#25a9e1"><path d="M6 10.68v1h.22l.73-1z"/><path d="M7 10.74v-.06h-.06l-.73 1h.11z"/></g><path d="M7 11.7v-1l-.69 1z" fill="#fff"/><path d="M3.48 12.36h1.01v1.01H3.48z" fill="#25a9e1"/><path d="M1.27 7.78h1.01V8.8H1.27z" fill="#7dba48"/><path d="M10.43 6.71v-.22h-1v1h.22l.78-.78z" fill="#a37749"/><path d="M14.55 0h1.02v1.01h-1.02zM2.82 3.79h1.01v1.02H2.82z" fill="#616263"/><g fill="#13487e"><path d="M13 4.62h0l.08-.06h0 .07 0l.42.33h.22l-.62-.48h0-.07 0-.07 0 0v.14z"/><path d="M13.19 4.61h-.07 0l-.12.01h0v.37h.58l-.42-.34z"/></g><path d="M3.99 9.79H5v1.01H3.99zm2-2.72H7v1.02H5.99zM0 12.5h1.02v1.01H0zm16.38-9.83h1.01v1.02h-1.01z" fill="#616263"/><path d="M17.19 5.29h1.01v1.02h-1.01zM10.38.9h1.01v1.02h-1.01zM3.74 7.58h1.01V8.6H3.74zM1.78 10.3h1.01v1.02H1.78zm-.25 3.07h1.01v1.02H1.53zm.25 3.64h1.01v1.02H1.78z" fill="#a37749"/><g fill="#7dba48"><path d="M14.84 5.99z"/><path d="M14.86 5.99h.19l-.21-.19v.19z"/><path d="M15.86 5.99v-1h-1v.83l.21.19z"/></g><path d="M12.37 2.47h1.01v1.01h-1.01zM6.58 1.4h1.01v1.01H6.58z" fill="#25a9e1"/><path d="M10.89 4.08h1.01V5.1h-1.01z" fill="#7dba48"/><path d="M9.31 8.87v-.88l-.79.88z" fill="#fff"/><path d="M9.31 7.99v-.15h0l-.91 1h.12z" fill="#13487e"/><path d="M8.29 7.85v1h.1l.92-1zm-1.8-3.76H7.5v1.02H6.49z" fill="#616263"/><path d="M5.34 14.69v-.06h0z" fill="#13487e"/><path d="M.36 15.99h1.01V17H.36zm2.1-.73h1.02v1.02H2.46z" fill="#7dba48"/><g fill="#fff"><path d="M10.55 8.09h1.01V9.1h-1.01zm-5.38 8.68h-.92 0 1v-1h-.08v1z"/><path d="M4.25 15.77h.92v1h-.92zm3.48-1.55h-.96v.03h1v-1h-.04v.97z"/><path d="M6.77 13.25h.96v.97h-.96zm3.79-2.53h1v.94h-1z"/></g><g clip-path="url(#C)"><path d="M2.788 26.034l.044-6.32 21.069.147-.044 6.32z" fill="#8c5316"/></g><g fill="#fff"><use xlink:href="#D"/><use xlink:href="#E"/><use xlink:href="#F"/><use xlink:href="#G"/><use xlink:href="#D"/><use xlink:href="#E"/><use xlink:href="#F"/><use xlink:href="#G"/><path d="M13.54 9.46h.55v1h-.55z"/></g></svg>