<svg xmlns="http://www.w3.org/2000/svg" viewBox="0 0 100 100">
	<rect x="0" y="0" width="100" height="100" fill="#111"/>
	<path fill="#006633" opacity="0.8" transform="scale(2.3) translate(12, -1.5)" d="M15.09 13.35Q15.09 16.04 13.82 17.65Q12.43 19.41 9.89 19.41Q9.57 19.41 8.20 19.21Q9.13 21.17 9.52 22.31Q10.18 24.24 10.52 26.83Q10.86 29.42 10.86 33.76Q10.86 34.52 10.82 36.24Q10.77 37.96 10.77 38.11L10.03 38.11Q8.18 30.22 7.57 28.15Q6.40 24.10 4.80 21.08Q3.20 18.07 0 14.06L1.61 9.13Q3.25 11.45 4.52 12.57Q6.84 14.62 9.42 14.62Q12.16 14.62 13.21 12.79Q13.79 11.79 14.11 9.18L14.89 9.13Q14.99 9.99 15.04 11.12Q15.09 12.26 15.09 13.35Z"/>
	<path fill="#D21034" opacity="0.8" transform="scale(2.3) translate(14, -0.5)" d="M15.09 13.35Q15.09 16.04 13.82 17.65Q12.43 19.41 9.89 19.41Q9.57 19.41 8.20 19.21Q9.13 21.17 9.52 22.31Q10.18 24.24 10.52 26.83Q10.86 29.42 10.86 33.76Q10.86 34.52 10.82 36.24Q10.77 37.96 10.77 38.11L10.03 38.11Q8.18 30.22 7.57 28.15Q6.40 24.10 4.80 21.08Q3.20 18.07 0 14.06L1.61 9.13Q3.25 11.45 4.52 12.57Q6.84 14.62 9.42 14.62Q12.16 14.62 13.21 12.79Q13.79 11.79 14.11 9.18L14.89 9.13Q14.99 9.99 15.04 11.12Q15.09 12.26 15.09 13.35Z"/>
	<path fill="#FFF" transform="scale(2.3) translate(13, -1)" d="M15.09 13.35Q15.09 16.04 13.82 17.65Q12.43 19.41 9.89 19.41Q9.57 19.41 8.20 19.21Q9.13 21.17 9.52 22.31Q10.18 24.24 10.52 26.83Q10.86 29.42 10.86 33.76Q10.86 34.52 10.82 36.24Q10.77 37.96 10.77 38.11L10.03 38.11Q8.18 30.22 7.57 28.15Q6.40 24.10 4.80 21.08Q3.20 18.07 0 14.06L1.61 9.13Q3.25 11.45 4.52 12.57Q6.84 14.62 9.42 14.62Q12.16 14.62 13.21 12.79Q13.79 11.79 14.11 9.18L14.89 9.13Q14.99 9.99 15.04 11.12Q15.09 12.26 15.09 13.35Z"/>
</svg>
